<svg version="1.1" xmlns="http://www.w3.org/2000/svg" xmlns:xlink="http://www.w3.org/1999/xlink" width="17.80269" height="28.55791" viewBox="0,0,17.80269,28.55791"><g transform="translate(-230.99609,-166.25138)"><g data-paper-data="{&quot;isPaintingLayer&quot;:true}" fill-rule="nonzero" stroke-width="1" stroke-miterlimit="10" stroke-dasharray="" stroke-dashoffset="0" style="mix-blend-mode: normal"><path d="M242.08032,174.9304v0c-0.50635,0.21135 -0.86558,-0.97329 -0.15919,-0.953c0.47279,0.0017 1.53791,-0.17623 1.53791,-0.17623c0,0 0.2461,-1.56236 0.82737,-1.32524c0.58126,0.23712 0.1069,1.05393 0.1069,1.05393c0,0 1.09321,-0.00974 1.15316,0.41817c0.045,0.40737 -0.90241,0.53105 -0.90241,0.53105c0,0 0.48228,0.40347 0.23945,0.67453c-0.1289,0.12525 -0.60923,-0.05957 -0.97563,-0.39021c-0.3664,-0.33063 -1.82756,0.16699 -1.82756,0.16699z" fill="#7f7f7f" stroke="#000000" stroke-linecap="butt" stroke-linejoin="miter"/><path d="M244.7858,178.77714v0c-0.53627,0.17025 -0.77778,-1.06863 -0.08258,-0.97732c0.4672,0.0372 1.53609,-0.04915 1.53609,-0.04915c0,0 0.36758,-1.52502 0.94325,-1.2524c0.55513,0.28758 0.01534,1.0577 0.01534,1.0577c0,0 1.07643,0.09678 1.10088,0.5191c0.045,0.40737 -0.92673,0.45444 -0.92673,0.45444c0,0 0.45614,0.45394 0.19835,0.70444c-0.14385,0.1047 -0.61859,-0.11564 -0.94388,-0.47618c-0.34585,-0.34559 -1.8407,0.01936 -1.8407,0.01936z" fill="#7f7f7f" stroke="#000000" stroke-linecap="butt" stroke-linejoin="miter"/><path d="M238.62947,181.93756v0c0.06894,-0.55317 1.27439,-0.23593 0.94571,0.34911c-0.26521,0.41309 -0.64046,1.40926 -0.64046,1.40926c0,0 1.22625,0.99372 0.72745,1.3882c-0.47826,0.37953 -0.94948,-0.44067 -0.94948,-0.44067c0,0 -0.5472,0.9327 -0.94156,0.77961c-0.39436,-0.15309 -0.00038,-1.03715 -0.00038,-1.03715c0,0 -0.61287,0.19457 -0.72512,-0.13242c-0.06361,-0.17377 0.353,-0.50843 0.81266,-0.65436c0.45966,-0.14593 0.77118,-1.66159 0.77118,-1.66159z" fill="#7f7f7f" stroke="#000000" stroke-linecap="butt" stroke-linejoin="miter"/><path d="M236.68072,177.79155v0c0.24089,-0.4897 1.27829,0.20135 0.79444,0.61639c-0.37551,0.30474 -1.06851,1.1235 -1.06851,1.1235c0,0 0.82461,1.34893 0.22669,1.56405c-0.57737,0.20016 -0.75711,-0.73788 -0.75711,-0.73788c0,0 -0.81825,0.68987 -1.13978,0.42089c-0.32153,-0.26898 0.31919,-0.98681 0.31919,-0.98681c0,0 -0.63537,-0.00911 -0.6355,-0.35483c-0.00754,-0.18314 0.49322,-0.35898 0.98096,-0.33674c0.48774,0.02224 1.2796,-1.30859 1.2796,-1.30859z" fill="#7f7f7f" stroke="#000000" stroke-linecap="butt" stroke-linejoin="miter"/><path d="M239.51569,172.96169c1.18854,0.07805 3.42763,0.99478 5.5443,4.42126c2.11666,3.42648 0.64118,5.63214 -1.63643,6.69255c-2.2776,1.06041 -4.59524,-0.05064 -5.9998,-3.14662c-1.09994,-3.0662 -1.23833,-3.34272 -1.42939,-4.55545c-0.41215,-2.8123 2.2057,-3.49161 3.52132,-3.41174zM245.04503,177.36241c2.11666,3.42648 0.64118,5.63214 -1.63643,6.69255c-2.2776,1.06041 -4.59524,-0.05064 -5.9998,-3.14662" fill="#7f7f7f" stroke="#000000" stroke-linecap="butt" stroke-linejoin="miter"/><path d="M236.82065,166.96964c0.09,0.81474 -0.35457,1.32693 -0.35457,1.32693" fill="none" stroke="#000000" stroke-linecap="round" stroke-linejoin="miter"/><path d="M235.78154,166.75138c0.37588,0.73241 0.14813,1.36973 0.14813,1.36973" fill="none" stroke="#000000" stroke-linecap="round" stroke-linejoin="miter"/><path d="M232.88831,170.68053c0,0 -0.62406,0.26559 -1.39223,-0.05555" fill="none" stroke="#000000" stroke-linecap="round" stroke-linejoin="miter"/><path d="M233.04505,170.03202c0,0 -0.66151,0.04136 -1.27842,-0.54707" fill="none" stroke="#000000" stroke-linecap="round" stroke-linejoin="miter"/><path d="M238.85498,170.11025v0c0.79847,1.39939 0.61974,3.22708 -0.69173,4.27593c-1.31147,1.04884 -3.61963,0.33957 -4.188,-0.44135c0,0 -1.00371,-0.55839 -1.12947,-2.07014c-0.07128,-0.70262 -0.15215,-2.15273 1.29198,-3.23525c0.97148,-0.73851 1.91523,-0.60804 2.64789,-0.29249c1.60176,0.68898 2.06934,1.76333 2.06934,1.76333z" fill="#7f7f7f" stroke="#000000" stroke-linecap="butt" stroke-linejoin="miter"/><path d="M234.4724,169.05601c-0.18495,0.13461 -0.37927,0.21317 -0.56241,0.22072c-0.18314,0.00754 -0.35508,-0.05594 -0.44482,-0.17923c-0.08974,-0.12331 -0.09729,-0.30643 -0.05437,-0.46342c0.06348,-0.17195 0.18301,-0.35326 0.36796,-0.48787c0.18495,-0.13461 0.37927,-0.21317 0.56241,-0.22072c0.18314,-0.00754 0.35508,0.05594 0.44482,0.17923c0.08974,0.12331 0.09729,0.30643 0.05437,0.46342c-0.04292,0.15699 -0.18301,0.35326 -0.36796,0.48787z" fill="#010100" stroke="#000000" stroke-linecap="butt" stroke-linejoin="miter"/><g stroke-linecap="butt" stroke-linejoin="miter"><path d="M235.07536,172.38962c-0.18495,0.13461 -0.39423,0.19262 -0.60728,0.15907c-0.21305,-0.03356 -0.41491,-0.13813 -0.54953,-0.32309c-0.13461,-0.18495 -0.19262,-0.39423 -0.15907,-0.60728c0.03356,-0.21305 0.13813,-0.41491 0.32309,-0.54953c0.18495,-0.13461 0.39423,-0.19262 0.60728,-0.15907c0.21305,0.03356 0.41491,0.13813 0.54953,0.32309c0.13461,0.18495 0.19262,0.39423 0.15907,0.60728c-0.03356,0.21305 -0.13813,0.41491 -0.32309,0.54953z" fill="#ffffff" stroke="#000000"/><path d="M234.62676,172.11882c-0.12331,0.08974 -0.25597,0.12343 -0.39801,0.10106c-0.14203,-0.02238 -0.25792,-0.09521 -0.3327,-0.19796c-0.07478,-0.10275 -0.12343,-0.25597 -0.10106,-0.39801c0.02238,-0.14203 0.09521,-0.25792 0.19796,-0.3327c0.12331,-0.08974 0.25597,-0.12343 0.39801,-0.10106c0.14203,0.02238 0.25792,0.09521 0.3327,0.19796c0.07478,0.10275 0.12343,0.25597 0.10106,0.39801c-0.00182,0.12707 -0.07467,0.24297 -0.19796,0.3327z" fill="#010100" stroke="none"/><g stroke="none"><path d="M235.77032,171.7895c0,0 0.12017,1.54727 -1.48524,1.11244c-0.01495,-0.02054 0.56775,-0.94766 1.48524,-1.11244z" fill="#58595b"/><path d="M234.8921,172.05145c0.55487,-0.40385 0.94168,-0.4339 0.95664,-0.41334c0.07102,0.01119 0.13644,0.05788 0.12525,0.1289c-0.01119,0.07102 -0.05788,0.13644 -0.1289,0.12525c0,0 -0.36626,0.01508 -0.90618,0.43949c-0.51936,0.40944 -0.56787,0.60194 -0.56787,0.60194c-0.01119,0.07102 -0.07284,0.11589 -0.14385,0.1047c-0.07102,-0.01119 -0.11589,-0.07284 -0.11966,-0.16441c0.01119,-0.07102 0.08585,-0.31397 0.66686,-0.7683c0.03551,0.00559 0.07661,-0.02432 0.11771,-0.05424v0z" fill="#010100"/></g></g><g stroke-linecap="butt" stroke-linejoin="miter"><path d="M237.43869,170.66951c-0.18495,0.13461 -0.39423,0.19262 -0.60728,0.15907c-0.21305,-0.03356 -0.41491,-0.13813 -0.54953,-0.32309c-0.13461,-0.18495 -0.19262,-0.39423 -0.15907,-0.60728c0.03356,-0.21305 0.13813,-0.41491 0.32309,-0.54953c0.18495,-0.13461 0.39423,-0.19262 0.60728,-0.15907c0.21305,0.03356 0.41491,0.13813 0.54953,0.32309c0.13461,0.18495 0.19262,0.39423 0.15907,0.60728c0.00195,0.21865 -0.11759,0.39996 -0.32309,0.54953z" fill="#ffffff" stroke="#000000"/><path d="M237.02,170.43982c-0.12331,0.08974 -0.25597,0.12343 -0.39801,0.10106c-0.14203,-0.02238 -0.25792,-0.09521 -0.3327,-0.19796c-0.08974,-0.12331 -0.12343,-0.25597 -0.10106,-0.39801c0.02238,-0.14203 0.09521,-0.25792 0.19796,-0.3327c0.12331,-0.08974 0.25597,-0.12343 0.39801,-0.10106c0.14203,0.02238 0.25792,0.09521 0.3327,0.19796c0.08974,0.12331 0.12343,0.25597 0.10106,0.39801c-0.01678,0.10653 -0.07467,0.24297 -0.19796,0.3327z" fill="#010100" stroke="none"/><g stroke="none"><path d="M238.13546,169.94232c0,0 0.26779,1.53413 -1.35999,1.24134c0.01495,0.02054 0.48177,-0.97939 1.35999,-1.24134z" fill="#58595b"/><path d="M237.29652,170.30143c0.50999,-0.4655 0.88186,-0.5161 0.91736,-0.51051c0.07661,-0.02432 0.13644,0.05788 0.1458,0.11394c0.00937,0.05606 -0.05788,0.13644 -0.11394,0.1458c0,0 -0.37186,0.05059 -0.8669,0.53664c-0.47448,0.47109 -0.50804,0.68415 -0.50804,0.68415c-0.01119,0.07102 -0.05788,0.13644 -0.1289,0.12525c-0.07102,-0.01119 -0.13644,-0.05788 -0.12525,-0.1289c0.01119,-0.07102 0.05034,-0.31957 0.58647,-0.83554c0.0467,-0.06542 0.0878,-0.09534 0.09339,-0.13085v0v0z" fill="#010100"/></g></g><path d="M238.43643,170.22626c0,0 1.15643,-0.87312 2.4684,-0.53911c0.96249,0.24258 1.62634,1.45702 1.35761,2.46997c-0.26872,1.01296 -1.543,1.59459 -2.67938,1.0699c-0.89902,-0.41453 -1.50108,-1.32813 -1.50108,-1.32813" fill="#57595b" stroke="#000000" stroke-linecap="butt" stroke-linejoin="miter"/><path d="M236.1895,173.40207c0,0 0.95533,1.0966 0.72783,2.42535c-0.15661,0.99423 -1.29066,1.72532 -2.33536,1.54256c-1.02414,-0.19771 -1.68799,-1.41215 -1.26422,-2.60082c0.34911,-0.94571 1.21782,-1.60943 1.21782,-1.60943" fill="#57595b" stroke="#000000" stroke-linecap="butt" stroke-linejoin="miter"/><path d="M244.41156,182.53905c1.08227,0.7527 2.01536,2.33705 2.5434,5.22218c0.60113,3.46068 0.02855,6.51814 -0.01255,6.54806c0,0 0.09017,-3.80666 -0.41719,-6.36103c-0.5616,-2.67208 -1.53201,-4.13495 -2.54887,-4.84097c-0.17962,-0.59232 0.3997,-0.57385 0.3997,-0.57385c0,0 0,0 0.03551,0.00559v0z" fill="#58595b" stroke="#000000" stroke-linecap="butt" stroke-linejoin="round"/></g></g></svg>